<?xml version="1.0" encoding="UTF-8"?>
<svg version="1.1" xmlns="http://www.w3.org/2000/svg" width="500" height="500">
<path d="M0 0 C165 0 330 0 500 0 C500 165 500 330 500 500 C335 500 170 500 0 500 C0 335 0 170 0 0 Z " fill="#A764C6" transform="translate(0,0)"/>
<path d="M0 0 C10.35401269 -0.43595843 17.3248527 0.16898339 25.5625 6.625 C26.366875 7.40875 27.17125 8.1925 28 9 C28 9.66 28 10.32 28 11 C28.99 11.33 29.98 11.66 31 12 C32.8621508 16.7300622 33.25833731 21.96242242 33 27 C33.66 27 34.32 27 35 27 C35.06731323 28.72331543 35.06731323 28.72331543 35.13598633 30.48144531 C35.30795511 34.79843496 35.49649023 39.11457717 35.68969727 43.43066406 C35.77062178 45.28854943 35.84722411 47.14662885 35.91918945 49.00488281 C35.70108545 66.12715746 35.70108545 66.12715746 41.91625977 81.2578125 C44.63827027 83.53364928 46.75846244 83.79458206 50.25 84.25 C53.09625 84.62125 53.09625 84.62125 56 85 C56 88.96 56 92.92 56 97 C54.1025 97.391875 52.205 97.78375 50.25 98.1875 C46.60706241 99.12070845 44.38209923 99.69245671 41.4375 102.0625 C37.33179373 110.45242152 36.49669078 118.7244758 36.09112549 127.97702026 C34.46898016 163.98853796 34.46898016 163.98853796 26.39453125 173.98828125 C18.18265047 180.86192961 10.47998442 181.36137877 0 181 C0 177.04 0 173.08 0 169 C0.88042969 168.91363281 1.76085937 168.82726562 2.66796875 168.73828125 C9.85851112 167.95498682 9.85851112 167.95498682 16.1875 164.75 C22.16597661 155.67920791 21.13407425 143.66906352 21.4375 133.1875 C22.52556511 103.11312795 22.52556511 103.11312795 31.69140625 93.1640625 C32.12324219 92.77992188 32.55507813 92.39578125 33 92 C32.04871498 89.87790264 31.25837842 88.24371369 29.5546875 86.63671875 C20.89227279 77.51724196 21.76752919 60.31870518 21.5625 48.6875 C21.87380431 31.39885254 21.87380431 31.39885254 15.515625 16.1484375 C11.9828712 13.1313341 9.94124471 12.80917108 5.375 12.4375 C3.60125 12.293125 1.8275 12.14875 0 12 C0 8.04 0 4.08 0 0 Z " fill="#FBF8FA" transform="translate(336,146)"/>
<path d="M0 0 C0 3.96 0 7.92 0 12 C-2.536875 12.185625 -2.536875 12.185625 -5.125 12.375 C-11.32862035 12.79151586 -11.32862035 12.79151586 -17 15 C-19.7413713 20.71442967 -20.59874464 26.87755147 -21.125 33.125 C-21.24500366 34.39947998 -21.24500366 34.39947998 -21.36743164 35.69970703 C-21.87447839 41.43167556 -22.14590144 47.15500908 -22.33789062 52.90527344 C-23.21707909 79.11715688 -23.21707909 79.11715688 -31.4765625 88.23046875 C-33.22080377 90.03022378 -33.22080377 90.03022378 -34 93 C-33.39414063 93.2371875 -32.78828125 93.474375 -32.1640625 93.71875 C-29.47185278 95.31269366 -28.74492954 96.70711139 -27.375 99.5 C-26.97023437 100.2940625 -26.56546875 101.088125 -26.1484375 101.90625 C-23.31103442 109.54986645 -22.71300878 117.28874617 -22.5 125.375 C-22.22004302 132.91513173 -21.81900672 140.42332562 -21.125 147.9375 C-21.05861328 148.74687012 -20.99222656 149.55624023 -20.92382812 150.39013672 C-20.35878961 156.13831705 -19.1967795 161.25402562 -15.5 165.875 C-12.41091509 168.19181368 -9.03382449 168.25603798 -5.3125 168.5625 C-3.559375 168.706875 -1.80625 168.85125 0 169 C0 172.96 0 176.92 0 181 C-9.73417456 181.4580788 -18.0455637 180.90030092 -25.9375 174.6875 C-32.4669525 166.17942553 -34.01027068 157.78608936 -35.0625 147.3125 C-35.14701416 146.51013916 -35.23152832 145.70777832 -35.31860352 144.88110352 C-36.047151 137.5143649 -36.35886293 130.13829654 -36.48266602 122.73754883 C-36.69685683 115.35657453 -38.18136216 108.71634689 -41.4375 102.0625 C-45.72393765 98.61244043 -50.6633907 98.10212583 -56 97 C-56 93.04 -56 89.08 -56 85 C-54.288125 84.773125 -52.57625 84.54625 -50.8125 84.3125 C-47.16152102 83.62354761 -45.12907477 83.08604984 -42 81 C-36.96064201 73.44096302 -36.56547934 64.96802617 -36.4375 56.125 C-36.21539137 48.0309762 -35.86744783 39.99618644 -35.0625 31.9375 C-34.98765381 31.14811035 -34.91280762 30.3587207 -34.83569336 29.54541016 C-34.31102221 24.54623582 -33.31621948 19.85183833 -32 15 C-31.34 15 -30.68 15 -30 15 C-29.95875 14.113125 -29.9175 13.22625 -29.875 12.3125 C-28.73542294 7.99838683 -26.67217258 6.24077469 -23 4 C-15.32746628 -0.25174703 -8.67373824 -0.36909524 0 0 Z " fill="#FBF9FB" transform="translate(172,146)"/>
<path d="M0 0 C1.25159912 0.00523682 2.50319824 0.01047363 3.79272461 0.01586914 C4.78942421 0.01799156 4.78942421 0.01799156 5.80625916 0.02015686 C7.93590735 0.02577021 10.06545175 0.03832485 12.19506836 0.05102539 C13.63582205 0.05603868 15.07657739 0.06060188 16.51733398 0.06469727 C20.05577938 0.07574394 23.59416375 0.09301747 27.13256836 0.11352539 C28.30444336 4.79321289 28.30444336 4.79321289 26.75756836 7.67602539 C26.22131836 8.48040039 25.68506836 9.28477539 25.13256836 10.11352539 C17.14752211 33.68317916 23.096525 68.17907182 24.07006836 92.73852539 C24.13528183 94.38703491 24.13528183 94.38703491 24.20181274 96.06884766 C24.59481592 105.85050378 24.99583212 115.62575893 25.69506836 125.39086914 C26.13796492 131.62196554 26.25172062 137.8062029 26.19506836 144.05102539 C26.19055664 145.03264648 26.18604492 146.01426758 26.18139648 147.02563477 C26.16987111 149.38833677 26.15361415 151.7508925 26.13256836 154.11352539 C25.14256836 154.11352539 24.15256836 154.11352539 23.13256836 154.11352539 C23.13256836 155.10352539 23.13256836 156.09352539 23.13256836 157.11352539 C24.12256836 157.11352539 25.11256836 157.11352539 26.13256836 157.11352539 C26.64535615 162.95930619 26.21981617 166.09823867 22.49584961 170.70336914 C20.81591026 172.44107144 19.46477743 173.43643244 17.13256836 174.11352539 C15.81256836 174.11352539 14.49256836 174.11352539 13.13256836 174.11352539 C12.80256836 129.23352539 12.47256836 84.35352539 12.13256836 38.11352539 C8.38794525 35.98854412 8.38794525 35.98854412 4.94506836 35.61352539 C4.01694336 35.44852539 3.08881836 35.28352539 2.13256836 35.11352539 C0.65146257 32.15131382 0.71856292 29.05592676 0.50756836 25.80102539 C0.41217773 24.48489258 0.31678711 23.16875977 0.21850586 21.81274414 C0.14523374 18.65871228 0.3465727 16.14606089 1.13256836 13.11352539 C0.47256836 13.11352539 -0.18743164 13.11352539 -0.86743164 13.11352539 C-0.99118164 12.14415039 -1.11493164 11.17477539 -1.24243164 10.17602539 C-1.44868164 9.16540039 -1.65493164 8.15477539 -1.86743164 7.11352539 C-2.52743164 6.78352539 -3.18743164 6.45352539 -3.86743164 6.11352539 C-3.91015264 4.44740634 -3.90806996 2.77969654 -3.86743164 1.11352539 C-2.86743164 0.11352539 -2.86743164 0.11352539 0 0 Z " fill="#F5EFF8" transform="translate(241.867431640625,205.886474609375)"/>
<path d="M0 0 C1.98 0 3.96 0 6 0 C7.92445456 21.35202516 7.92445456 21.35202516 3.5859375 26.73046875 C1.66511883 28.66148589 -0.26974455 30.10372274 -2.49609375 31.71875 C-5.72582324 34.66128046 -5.79805764 36.7333203 -6 41 C-6.66 41 -7.32 41 -8 41 C-7.67 42.65 -7.34 44.3 -7 46 C-5.68 46 -4.36 46 -3 46 C-2.67 44.35 -2.34 42.7 -2 41 C-2.66 41 -3.32 41 -4 41 C-4.33984375 38.2734375 -4.33984375 38.2734375 -4 35 C-1.62890625 32.8515625 -1.62890625 32.8515625 1.4375 30.625 C5.87835611 26.93020215 7.35212196 23.70883126 7.953125 17.94921875 C8.27654915 11.96431922 8.24428276 5.98744972 8 0 C8.66 0 9.32 0 10 0 C9.97474243 1.06528931 9.97474243 1.06528931 9.94897461 2.15209961 C9.0284838 15.67781397 9.0284838 15.67781397 13.0703125 27.9609375 C14.70771046 29.17743692 16.35856742 30.37606519 18.0234375 31.5546875 C22.37540268 36.93873929 20.77042536 45.48967987 20.36987305 52.07983398 C20 54 20 54 18 56 C17.3574765 58.06874034 17.3574765 58.06874034 17 60 C18.98 60.33 20.96 60.66 23 61 C23.16687448 58.58354218 23.16687448 58.58354218 23 56 C22.34 55.34 21.68 54.68 21 54 C20.80810547 51.86450195 20.80810547 51.86450195 20.8671875 49.23828125 C20.86460937 48.28373047 20.86203125 47.32917969 20.859375 46.34570312 C20.86969239 44.3428394 20.90309744 42.33994559 20.9609375 40.33789062 C21.04662238 34.72131146 21.04662238 34.72131146 18.17871094 30.18676758 C17.45200195 29.6636499 16.72529297 29.14053223 15.9765625 28.6015625 C13.14675542 26.49796956 12.13922688 25.60995865 11.34326172 22.12280273 C11.21458728 18.73816046 11.30010478 15.44342006 11.5 12.0625 C11.53609375 10.90169922 11.5721875 9.74089844 11.609375 8.54492188 C11.70325963 5.69317612 11.83441781 2.84833205 12 0 C14.27057377 -0.05398987 16.54151288 -0.09278742 18.8125 -0.125 C20.07707031 -0.14820313 21.34164062 -0.17140625 22.64453125 -0.1953125 C26 0 26 0 29 2 C29.3742218 4.56735229 29.3742218 4.56735229 29.37231445 7.85498047 C29.38165764 9.69731766 29.38165764 9.69731766 29.39118958 11.57687378 C29.38249981 12.92364911 29.37318164 14.27042052 29.36328125 15.6171875 C29.36276267 16.99480183 29.36328028 18.37241692 29.36479187 19.75003052 C29.36470207 22.64026916 29.35426071 25.5302293 29.33618164 28.42041016 C29.31353645 32.12162968 29.31294181 35.82244059 29.31969929 39.52371025 C29.32304514 42.37020484 29.31639691 45.21660667 29.30657005 48.06308365 C29.30272517 49.42740518 29.30156689 50.79173705 29.3031559 52.15606308 C29.3035277 54.06614246 29.28940582 55.97620799 29.2746582 57.88623047 C29.27005081 58.97273895 29.26544342 60.05924744 29.26069641 61.17868042 C29.00009937 63.99892455 28.54947616 65.6497168 27 68 C24.12981559 69.43509221 21.66456277 69.11158506 18.4609375 69.09765625 C16.50800781 69.09282227 16.50800781 69.09282227 14.515625 69.08789062 C13.13541601 69.07953466 11.75520768 69.07106971 10.375 69.0625 C8.98698074 69.05748501 7.59895978 69.0529221 6.2109375 69.04882812 C2.80724868 69.03700976 -0.59635439 69.02053434 -4 69 C-4 66.03 -4 63.06 -4 60 C-3.34 60 -2.68 60 -2 60 C-2.33 58.35 -2.66 56.7 -3 55 C-4.65 54.67 -6.3 54.34 -8 54 C-8 55.98 -8 57.96 -8 60 C-7.34 60 -6.68 60 -6 60 C-6 62.97 -6 65.94 -6 69 C-8.31 69 -10.62 69 -13 69 C-13 62.4 -13 55.8 -13 49 C-12.34 49 -11.68 49 -11 49 C-11.31195313 48.15695313 -11.62390625 47.31390625 -11.9453125 46.4453125 C-13.86909178 40.16096687 -14.42827547 34.3916943 -13 28 C-10.88003211 25.09466228 -8.1199211 22.93856197 -5.36572266 20.65673828 C-1.49243563 17.2064565 -0.22133811 14.65593055 0.20141602 9.46655273 C0.27106669 6.28887179 0.20936292 3.17265345 0 0 Z " fill="#FBF9FC" transform="translate(259,132)"/>
<path d="M0 0 C2.97 0 5.94 0 9 0 C9.33 0.99 9.66 1.98 10 3 C10.66 3 11.32 3 12 3 C12 4.65 12 6.3 12 8 C13.32 8 14.64 8 16 8 C16.31927064 9.45686603 16.62990834 10.91562351 16.9375 12.375 C17.11152344 13.18710938 17.28554688 13.99921875 17.46484375 14.8359375 C18.92245989 23.45395992 19.1938899 32.02204092 19.1875 40.75 C19.1862915 42.46546021 19.1862915 42.46546021 19.18505859 44.21557617 C19.11377715 54.05311448 18.97041178 63.84136107 15 73 C14.01 73 13.02 73 12 73 C11.9175 73.763125 11.835 74.52625 11.75 75.3125 C11 78 11 78 9.4375 79.875 C5.82395235 81.54279122 2.77688431 81.05270605 -1 80 C-2.9375 78.6875 -2.9375 78.6875 -4 77 C-4.12375 76.34 -4.2475 75.68 -4.375 75 C-4.58125 74.34 -4.7875 73.68 -5 73 C-5.82454681 72.58339111 -6.64909363 72.16678223 -7.49862671 71.73754883 C-10 70 -10 70 -10.63491821 67.3815918 C-10.63889618 66.33140869 -10.64287415 65.28122559 -10.64697266 64.19921875 C-10.66273346 63.0078833 -10.67849426 61.81654785 -10.69473267 60.58911133 C-10.68461151 59.30157959 -10.67449036 58.01404785 -10.6640625 56.6875 C-10.66743093 55.35375527 -10.67228378 54.02001352 -10.67855835 52.6862793 C-10.68592876 49.89179238 -10.67522093 47.09810487 -10.65185547 44.30371094 C-10.62336494 40.72184122 -10.63976839 37.14184432 -10.66971779 33.56004333 C-10.68778779 30.80613089 -10.68203471 28.0526624 -10.66907883 25.29873657 C-10.66412212 23.33610824 -10.67930507 21.37346263 -10.69473267 19.41088867 C-10.67897186 18.21955322 -10.66321106 17.02821777 -10.64697266 15.80078125 C-10.64299469 14.75059814 -10.63901672 13.70041504 -10.63491821 12.6184082 C-10 10 -10 10 -7.56503296 8.30541992 C-6.71857208 7.87463135 -5.87211121 7.44384277 -5 7 C-3.96642853 5.35394174 -2.95939668 3.69036558 -2 2 C-1.34 2 -0.68 2 0 2 C0 1.34 0 0.68 0 0 Z " fill="#EDDCF4" transform="translate(302,126)"/>
<path d="M0 0 C2.69540315 -0.26686213 5.15847464 -0.34818073 7.8515625 -0.29296875 C8.62559418 -0.28872391 9.39962585 -0.28447906 10.19711304 -0.28010559 C12.67342677 -0.26328998 15.14893158 -0.22563395 17.625 -0.1875 C19.30207159 -0.17245682 20.97915592 -0.15876778 22.65625 -0.14648438 C26.77114581 -0.11337721 30.88543569 -0.06157637 35 0 C35.0809313 2.60478883 35.14045434 5.20706653 35.1875 7.8125 C35.21263672 8.55048828 35.23777344 9.28847656 35.26367188 10.04882812 C35.33780469 15.50994531 35.33780469 15.50994531 33.61328125 18.01171875 C32 19 32 19 30 19 C30 19.66 30 20.32 30 21 C29.34 21 28.68 21 28 21 C28 21.66 28 22.32 28 23 C27.34 23 26.68 23 26 23 C26 23.66 26 24.32 26 25 C25.01 25.66 24.02 26.32 23 27 C22.6388294 29.66733366 22.44171592 32.13671514 22.375 34.8125 C22.21231682 39.30662282 21.89146289 43.58473569 21 48 C21.495 48.495 21.495 48.495 22 49 C22.08669432 50.4887186 22.10703494 51.981445 22.09765625 53.47265625 C22.09443359 54.37177734 22.09121094 55.27089844 22.08789062 56.19726562 C22.07951172 57.14279297 22.07113281 58.08832031 22.0625 59.0625 C22.05798828 60.01189453 22.05347656 60.96128906 22.04882812 61.93945312 C22.0370011 64.29303065 22.02052025 66.64648477 22 69 C18.75017 69.08728882 15.5006425 69.14048658 12.25 69.1875 C11.32960937 69.21263672 10.40921875 69.23777344 9.4609375 69.26367188 C8.57148438 69.27333984 7.68203125 69.28300781 6.765625 69.29296875 C5.94868164 69.3086792 5.13173828 69.32438965 4.29003906 69.34057617 C1.32844947 68.90012655 0.13375033 68.10123049 -2 66 C-2.49447632 63.2677002 -2.49447632 63.2677002 -2.48583984 59.92382812 C-2.4919931 58.67243042 -2.49814636 57.42103271 -2.50448608 56.13171387 C-2.49068964 54.76488512 -2.47615563 53.39806365 -2.4609375 52.03125 C-2.45855286 50.63025075 -2.4576478 49.22924826 -2.4581604 47.82824707 C-2.45503255 44.89261849 -2.43846965 41.95747836 -2.41162109 39.02197266 C-2.37764082 35.25901389 -2.36999251 31.49659184 -2.37151146 27.73349762 C-2.3709676 24.84070715 -2.35999788 21.94803403 -2.34550858 19.05528259 C-2.33914414 17.66780994 -2.3352025 16.28032399 -2.33372116 14.89283752 C-2.3293846 12.95390037 -2.31029647 11.0150131 -2.29052734 9.07617188 C-2.28290375 7.97269409 -2.27528015 6.86921631 -2.26742554 5.7322998 C-2 3 -2 3 0 0 Z " fill="#FCFBFD" transform="translate(222,132)"/>
<path d="M0 0 C1.43583001 -0.10836453 2.8740202 -0.18576167 4.3125 -0.25 C5.11300781 -0.29640625 5.91351563 -0.3428125 6.73828125 -0.390625 C9 0 9 0 10.60546875 1.5390625 C12.50397075 4.88936014 12.52404762 8.00854588 12.57421875 11.765625 C12.5889473 12.51785339 12.60367584 13.27008179 12.61885071 14.04510498 C12.64276231 15.63527311 12.65821074 17.22558804 12.66577148 18.81591797 C12.68732283 21.23015276 12.76747153 23.6379513 12.84960938 26.05078125 C13.04555063 37.52968554 13.04555063 37.52968554 10.20556641 41.5234375 C8.77890474 42.78280022 7.31850636 44.0052162 5.82348633 45.18261719 C2.9385948 48.0578525 3.02813486 50.88080299 2.94140625 54.8125 C2.96074219 55.699375 2.98007813 56.58625 3 57.5 C2.98839844 58.4178125 2.97679687 59.335625 2.96484375 60.28125 C2.94149059 62.52315356 2.95389187 64.75863249 3 67 C2.01 67.495 2.01 67.495 1 68 C1 69.32 1 70.64 1 72 C2.32 72.33 3.64 72.66 5 73 C5.66 71.35 6.32 69.7 7 68 C6.34 68 5.68 68 5 68 C4.7953215 64.7926204 4.67194679 61.58692823 4.5625 58.375 C4.47452148 57.01955078 4.47452148 57.01955078 4.38476562 55.63671875 C4.21475106 48.98186274 4.21475106 48.98186274 6.58935547 46.01269531 C8.32893438 44.52162767 10.05880978 43.21367377 12 42 C12.19304243 46.32285335 12.37163516 50.64599481 12.53710938 54.9699707 C12.5953547 56.43953274 12.65748237 57.90894641 12.72363281 59.37817383 C12.81827036 61.49533052 12.89873495 63.61263548 12.9765625 65.73046875 C13.02893066 67.00301514 13.08129883 68.27556152 13.13525391 69.58666992 C12.95788521 74.0628283 12.17812977 76.82187023 9 80 C6.6171875 80.1953125 6.6171875 80.1953125 3.875 80.125 C2.96492187 80.10695313 2.05484375 80.08890625 1.1171875 80.0703125 C0.41851562 80.04710937 -0.28015625 80.02390625 -1 80 C-1.433125 79.05125 -1.86625 78.1025 -2.3125 77.125 C-3.79302201 73.79958063 -3.79302201 73.79958063 -7 72 C-9.59403256 65.76911607 -9.78465406 59.34803564 -10.25 52.6875 C-10.34007324 51.41688721 -10.43014648 50.14627441 -10.52294922 48.8371582 C-11.26405761 36.43322236 -10.44620206 24.32223186 -9 12 C-8.34 12 -7.68 12 -7 12 C-6.814375 11.0409375 -6.814375 11.0409375 -6.625 10.0625 C-6.41875 9.381875 -6.2125 8.70125 -6 8 C-5.34 7.67 -4.68 7.34 -4 7 C-2.88365848 5.34948712 -2.88365848 5.34948712 -1.875 3.4375 C-1.25625 2.303125 -0.6375 1.16875 0 0 Z " fill="#FAF8FB" transform="translate(197,126)"/>
<path d="M0 0 C3.01740267 0.33526696 4.79444437 0.85308509 7.28411865 2.63250732 C9.61118972 5.84329094 9.4824919 7.93362543 9.45410156 11.87988281 C9.45468567 12.56321686 9.45526978 13.2465509 9.45587158 13.95059204 C9.453092 16.20195899 9.42200908 18.45199032 9.390625 20.703125 C9.38316209 22.266818 9.37746939 23.83052037 9.37347412 25.39422607 C9.35822154 29.50441433 9.3189436 33.61403471 9.2746582 37.72399902 C9.23369701 41.92008787 9.21546133 46.11626873 9.1953125 50.3125 C9.15244842 58.5419269 9.08420233 66.77089275 9 75 C8.01 75 7.02 75 6 75 C6 74.34 6 73.68 6 73 C4.68 73 3.36 73 2 73 C2 73.66 2 74.32 2 75 C2.99 75.66 3.98 76.32 5 77 C5 77.66 5 78.32 5 79 C4.34 79 3.68 79 3 79 C3 79.66 3 80.32 3 81 C2.34 81 1.68 81 1 81 C1 81.66 1 82.32 1 83 C0.34 83 -0.32 83 -1 83 C-1 83.66 -1 84.32 -1 85 C-1.66 85 -2.32 85 -3 85 C-3.02804921 83.41677806 -3.04684498 81.833393 -3.0625 80.25 C-3.07410156 79.36828125 -3.08570313 78.4865625 -3.09765625 77.578125 C-3.01597757 74.58541803 -2.80273108 71.67556167 -2.52734375 68.69726562 C-1.92209169 61.55879528 -1.67829352 54.42503603 -1.46484375 47.265625 C-1.42170284 45.89271202 -1.3782864 44.51980767 -1.33460999 43.14691162 C-1.22174535 39.57641541 -1.11256161 36.00581634 -1.00421143 32.43518066 C-0.89245212 28.77442425 -0.77711898 25.11378049 -0.66210938 21.453125 C-0.43795867 14.30218815 -0.21770631 7.15113619 0 0 Z " fill="#F3ECF8" transform="translate(244,242)"/>
<path d="M0 0 C1.45742463 -0.08096803 2.91612807 -0.13917774 4.375 -0.1875 C5.18710937 -0.22230469 5.99921875 -0.25710937 6.8359375 -0.29296875 C7.55007813 -0.19628906 8.26421875 -0.09960938 9 0 C11.59701524 3.89552286 11.36981327 7.26926569 11.44921875 11.796875 C11.47095657 12.66387024 11.4926944 13.53086548 11.51509094 14.4241333 C11.55900752 16.25986491 11.59820745 18.0957145 11.63305664 19.93164062 C11.68702986 22.72566249 11.75732841 25.51891081 11.83007812 28.3125 C11.87076822 30.09893636 11.91051202 31.88539457 11.94921875 33.671875 C11.96997971 34.50128601 11.99074066 35.33069702 12.01213074 36.1852417 C12.0937834 40.91778058 11.80492013 45.3337284 11 50 C9.85373678 49.02133662 8.70800212 48.04205413 7.5625 47.0625 C6.60537109 46.24458984 6.60537109 46.24458984 5.62890625 45.41015625 C4.73008851 44.63204305 3.84063472 43.84063472 3 43 C2.90126184 41.00200428 2.87028201 39.00042842 2.875 37 C2.87242187 35.906875 2.86984375 34.81375 2.8671875 33.6875 C3 31 3 31 4 30 C4.28397852 27.19176801 4.44846665 24.38353365 4.62109375 21.56640625 C5 19 5 19 7 17 C6.6814823 14.89179203 6.6814823 14.89179203 6 13 C5.01 13 4.02 13 3 13 C2.67 13.99 2.34 14.98 2 16 C2.66 16.99 3.32 17.98 4 19 C4.125 22.1875 4.125 22.1875 4 25 C2.35 25.33 0.7 25.66 -1 26 C-0.50243908 28.75641416 -0.50243908 28.75641416 1 31 C1.23527773 33.34987262 1.41386417 35.70556039 1.5625 38.0625 C1.64628906 39.35285156 1.73007812 40.64320313 1.81640625 41.97265625 C1.87699219 42.97167969 1.93757813 43.97070312 2 45 C2.66 45 3.32 45 4 45 C4 45.66 4 46.32 4 47 C4.66 47 5.32 47 6 47 C6 47.66 6 48.32 6 49 C6.66 49 7.32 49 8 49 C10.78879456 51.5659611 11.00448735 53.05959205 11.29296875 56.890625 C11.27314945 58.34404009 11.23754845 59.79731167 11.1875 61.25 C11.17396484 61.99507812 11.16042969 62.74015625 11.14648438 63.5078125 C11.11127204 65.33885416 11.05746851 67.16952169 11 69 C7.125 68.125 7.125 68.125 6 67 C5.8942329 65.08444032 5.81547083 63.16735994 5.75 61.25 C5.43194845 56.99416732 5.31181634 55.41294596 2.6875 51.9375 C0.17575637 50.00889745 0.17575637 50.00889745 -2.13916016 48.96484375 C-5.22319439 45.70844024 -4.53025614 41.93625978 -4.4609375 37.625 C-4.46002106 36.70412598 -4.45910461 35.78325195 -4.4581604 34.83447266 C-4.45211883 32.88764288 -4.43635616 30.94082264 -4.41162109 28.99414062 C-4.37513908 26.01137099 -4.37060151 23.0298443 -4.37109375 20.046875 C-4.36126171 18.15623925 -4.34960433 16.26561192 -4.3359375 14.375 C-4.33371185 13.48119629 -4.33148621 12.58739258 -4.32919312 11.66650391 C-4.31643341 10.83554199 -4.30367371 10.00458008 -4.29052734 9.1484375 C-4.28290375 8.41802246 -4.27528015 7.68760742 -4.26742554 6.93505859 C-4 5 -4 5 -2 2 C-1.34 2 -0.68 2 0 2 C0 1.34 0 0.68 0 0 Z " fill="#FBF8FC" transform="translate(302,126)"/>
<path d="M0 0 C0 20.13 0 40.26 0 61 C-5.02349748 61 -6.09532506 60.73727907 -9.640625 57.484375 C-12.90433849 53.92054993 -13.95594495 50.91047098 -14.1875 46.125 C-14.125625 45.09375 -14.06375 44.0625 -14 43 C-12.68 43.33 -11.36 43.66 -10 44 C-10 43.01 -10 42.02 -10 41 C-10.99 41 -11.98 41 -13 41 C-13.05384551 36.39321714 -13.04869758 31.79183903 -12.99902344 27.18505859 C-12.99991436 25.19162377 -13.07791826 23.19860409 -13.1640625 21.20703125 C-13.20718236 14.73186613 -12.47280619 10.82062367 -8.04418945 6.11645508 C-1.71147078 0 -1.71147078 0 0 0 Z " fill="#F0EAF4" transform="translate(253,319)"/>
<path d="M0 0 C1.25159912 0.00523682 2.50319824 0.01047363 3.79272461 0.01586914 C4.78942421 0.01799156 4.78942421 0.01799156 5.80625916 0.02015686 C7.93590735 0.02577021 10.06545175 0.03832485 12.19506836 0.05102539 C13.63582205 0.05603868 15.07657739 0.06060188 16.51733398 0.06469727 C20.05577938 0.07574394 23.59416375 0.09301747 27.13256836 0.11352539 C27.75366211 2.43774414 27.75366211 2.43774414 28.13256836 5.11352539 C26.19506836 7.92602539 26.19506836 7.92602539 24.13256836 10.11352539 C24.13256836 9.45352539 24.13256836 8.79352539 24.13256836 8.11352539 C20.50256836 8.11352539 16.87256836 8.11352539 13.13256836 8.11352539 C13.13256836 18.01352539 13.13256836 27.91352539 13.13256836 38.11352539 C5.66590169 36.24685872 5.66590169 36.24685872 2.13256836 35.11352539 C0.65146257 32.15131382 0.71856292 29.05592676 0.50756836 25.80102539 C0.41217773 24.48489258 0.31678711 23.16875977 0.21850586 21.81274414 C0.14523374 18.65871228 0.3465727 16.14606089 1.13256836 13.11352539 C0.47256836 13.11352539 -0.18743164 13.11352539 -0.86743164 13.11352539 C-0.99118164 12.14415039 -1.11493164 11.17477539 -1.24243164 10.17602539 C-1.44868164 9.16540039 -1.65493164 8.15477539 -1.86743164 7.11352539 C-2.52743164 6.78352539 -3.18743164 6.45352539 -3.86743164 6.11352539 C-3.91015264 4.44740634 -3.90806996 2.77969654 -3.86743164 1.11352539 C-2.86743164 0.11352539 -2.86743164 0.11352539 0 0 Z " fill="#B673DF" transform="translate(241.867431640625,205.886474609375)"/>
<path d="M0 0 C0 11.55 0 23.1 0 35 C0.66 35 1.32 35 2 35 C2.2475 34.4225 2.495 33.845 2.75 33.25 C4 31 4 31 6.125 29.0625 C8.23158282 27.13288514 8.23158282 27.13288514 8.375 24.375 C8.20984251 21.81772804 8.20984251 21.81772804 6 20 C5.8046875 17.6171875 5.8046875 17.6171875 5.875 14.875 C5.89304688 13.96492187 5.91109375 13.05484375 5.9296875 12.1171875 C5.96449219 11.06917969 5.96449219 11.06917969 6 10 C6.66 10 7.32 10 8 10 C8 11.65 8 13.3 8 15 C9.32 15.33 10.64 15.66 12 16 C12.5625 17.9375 12.5625 17.9375 13 20 C12.67 20.33 12.34 20.66 12 21 C11.8760083 22.62446045 11.8760083 22.62446045 11.74951172 24.28173828 C10.83736634 28.8068113 9.57202917 29.69847527 6.0078125 32.4921875 C1.59709604 36.63892093 0.25040076 39.27134686 -0.1953125 45.3203125 C-0.22159063 47.92184786 -0.19724069 50.52433508 -0.125 53.125 C-0.12305344 54.47656361 -0.1256269 55.82814159 -0.1328125 57.1796875 C-0.1328125 60.45603637 -0.08751173 63.72501718 0 67 C-1.875 66.375 -1.875 66.375 -4 65 C-6.69698106 58.85754373 -6.78823221 52.29682123 -7.25 45.6875 C-7.34007324 44.41688721 -7.43014648 43.14627441 -7.52294922 41.8371582 C-8.26405761 29.43322236 -7.44620206 17.32223186 -6 5 C-5.34 5 -4.68 5 -4 5 C-3.814375 4.0409375 -3.814375 4.0409375 -3.625 3.0625 C-3.41875 2.381875 -3.2125 1.70125 -3 1 C-1 0 -1 0 0 0 Z " fill="#C787E1" transform="translate(194,133)"/>
<path d="M0 0 C0.33 0 0.66 0 1 0 C1.33 14.19 1.66 28.38 2 43 C1.34 43 0.68 43 0 43 C-0.66 43.99 -1.32 44.98 -2 46 C-2.99 45.67 -3.98 45.34 -5 45 C-5 44.01 -5 43.02 -5 42 C-6.485 42.495 -6.485 42.495 -8 43 C-8.12406007 38.96174934 -8.21455045 34.92424362 -8.2746582 30.88452148 C-8.29972617 29.51192898 -8.33379082 28.13946898 -8.37719727 26.76733398 C-8.43817531 24.78949304 -8.46361009 22.81065816 -8.48828125 20.83203125 C-8.51446533 19.64327393 -8.54064941 18.4545166 -8.56762695 17.22973633 C-7.83679342 13.07137214 -6.2091997 11.641467 -3 9 C-2.34 8.67 -1.68 8.34 -1 8 C-0.53476937 6.10466658 -0.53476937 6.10466658 -0.375 3.9375 C-0.25125 2.638125 -0.1275 1.33875 0 0 Z " fill="#E8D9F1" transform="translate(264,272)"/>
<path d="M0 0 C4 1 4 1 5 2 C5.09386381 3.8718094 5.11743804 5.7471806 5.11352539 7.62133789 C5.11341209 9.42309227 5.11341209 9.42309227 5.11329651 11.26124573 C5.10813522 12.5685112 5.10297394 13.87577667 5.09765625 15.22265625 C5.09579198 16.56644132 5.09436812 17.91022707 5.09336853 19.25401306 C5.08954402 22.79682277 5.07971432 26.3395917 5.06866455 29.88238525 C5.05844899 33.49515227 5.0538706 37.10792584 5.04882812 40.72070312 C5.03809198 47.8138188 5.02101636 54.90690674 5 62 C3.35 62.66 1.7 63.32 0 64 C0 42.88 0 21.76 0 0 Z " fill="#F7F0F9" transform="translate(211,134)"/>
<path d="M0 0 C0.33 0 0.66 0 1 0 C1.82432153 3.61202508 2.13565736 6.96640835 2.16494751 10.66824341 C2.17618149 11.79827789 2.18741547 12.92831238 2.19898987 14.09259033 C2.20631638 15.32289978 2.21364288 16.55320923 2.22119141 17.82080078 C2.2326973 19.12369049 2.24420319 20.4265802 2.25605774 21.76895142 C2.28730527 25.33483358 2.31247052 28.90073455 2.3362546 32.46667337 C2.35670559 35.4440817 2.38023364 38.42146235 2.40379179 41.39884746 C2.45934213 48.4203307 2.5100814 55.44183714 2.55761719 62.46337891 C2.60674169 69.70992923 2.66305035 76.95639782 2.72303832 84.20286572 C2.77435082 90.42544159 2.82169083 96.64803856 2.86572587 102.8706702 C2.89203552 106.58692878 2.91975447 110.30316264 2.9510994 114.01938248 C2.98576376 118.1588915 3.0121073 122.29841261 3.03759766 126.43798828 C3.05466011 128.28952515 3.05466011 128.28952515 3.07206726 130.1784668 C3.07766159 131.30286163 3.08325592 132.42725647 3.08901978 133.58572388 C3.09951575 135.05407779 3.09951575 135.05407779 3.11022377 136.55209541 C3 139 3 139 2 142 C1.34 142 0.68 142 0 142 C-0.96943618 137.94982593 -1.11766668 134.19057892 -1.09375 130.03125 C-1.09016479 129.34357544 -1.08657959 128.65590088 -1.08288574 127.9473877 C-1.01213343 118.46290983 -0.74849337 108.98110609 -0.5 99.5 C-0.4516382 97.59766094 -0.40346004 95.6953172 -0.35546875 93.79296875 C-0.23908908 89.195256 -0.1202492 84.5976131 0 80 C-0.66 80 -1.32 80 -2 80 C-2 79.34 -2 78.68 -2 78 C-1.34 78 -0.68 78 0 78 C0 52.26 0 26.52 0 0 Z " fill="#9A59C9" transform="translate(253,239)"/>
<path d="M0 0 C0.99 0 1.98 0 3 0 C3 20.46 3 40.92 3 62 C1.68 61.67 0.36 61.34 -1 61 C-1.02312792 53.19424805 -1.04091738 45.38850405 -1.05181217 37.58272648 C-1.05704002 33.9585404 -1.06413587 30.3343777 -1.07543945 26.71020508 C-1.08627184 23.21540025 -1.09227758 19.72061796 -1.09487724 16.22579765 C-1.09763551 14.23760611 -1.10544688 12.24942369 -1.11329651 10.26124573 C-1.11337204 9.06007614 -1.11344757 7.85890656 -1.11352539 6.62133789 C-1.115746 5.55766495 -1.11796661 4.493992 -1.12025452 3.39808655 C-1 1 -1 1 0 0 Z " fill="#FBF8FD" transform="translate(293,135)"/>
<path d="M0 0 C2.16930454 3.51797628 2.24290238 6.33118625 2.22705078 10.42089844 C2.22689972 11.72194519 2.22674866 13.02299194 2.22659302 14.36346436 C2.21638046 15.77876947 2.20594848 17.19407301 2.1953125 18.609375 C2.19158071 20.06097214 2.18873452 21.5125718 2.18673706 22.96417236 C2.17911364 26.77824907 2.15947635 30.59217262 2.1373291 34.40618896 C2.11684278 38.30071949 2.10772939 42.19527484 2.09765625 46.08984375 C2.07622915 53.7266322 2.04210892 61.36329461 2 69 C-0.75439516 66.24560484 -0.30989276 64.53396797 -0.4140625 60.6796875 C-0.45273438 59.42285156 -0.49140625 58.16601562 -0.53125 56.87109375 C-0.5621875 55.55238281 -0.593125 54.23367187 -0.625 52.875 C-0.66318029 51.53513082 -0.70223206 50.19528617 -0.7421875 48.85546875 C-0.8367203 45.57045381 -0.92227156 42.28544862 -1 39 C-3.9321691 41.22134023 -5.69672805 42.62986588 -6.50634766 46.28759766 C-6.71538924 48.97055233 -6.79538438 51.62154373 -6.8125 54.3125 C-6.83763672 55.24384766 -6.86277344 56.17519531 -6.88867188 57.13476562 C-6.94735998 59.42360186 -6.98377168 61.71053426 -7 64 C-6.34 64 -5.68 64 -5 64 C-5.33 65.65 -5.66 67.3 -6 69 C-7.485 69.495 -7.485 69.495 -9 70 C-9.99 69.34 -10.98 68.68 -12 68 C-11.67 66.35 -11.34 64.7 -11 63 C-10.34 63 -9.68 63 -9 63 C-9.04189453 62.43603516 -9.08378906 61.87207031 -9.12695312 61.29101562 C-9.2949337 58.6947589 -9.39776684 56.09964327 -9.5 53.5 C-9.60054687 52.1696875 -9.60054687 52.1696875 -9.703125 50.8125 C-9.78564017 48.00698415 -9.72365847 45.71802674 -9 43 C-7.21875 41.19140625 -7.21875 41.19140625 -5.03125 39.46875 C-1.35245095 36.24694462 -0.44893218 33.76210887 -0.08068848 28.88146973 C0.05724648 24.91724832 0.04993839 20.96574214 0 17 C0.00810136 15.35023869 0.0197873 13.70049087 0.03515625 12.05078125 C0.06484257 8.03282018 0.04577219 4.01778114 0 0 Z " fill="#C4A1D4" transform="translate(209,130)"/>
<path d="M0 0 C1.32 0.33 2.64 0.66 4 1 C4.625 2.875 4.625 2.875 5 5 C4.34 5.66 3.68 6.32 3 7 C2.57446839 9.62976524 2.57446839 9.62976524 2.4375 12.5625 C2.09722222 17.90277778 2.09722222 17.90277778 1 19 C0.05379965 26.35014573 0.05379965 26.35014573 2.33984375 33.12890625 C4.13779013 34.95461373 4.13779013 34.95461373 7 37 C7.495 34.03 7.495 34.03 8 31 C8.66 31 9.32 31 10 31 C10 40.57 10 50.14 10 60 C10.66 60.33 11.32 60.66 12 61 C11.01 61 10.02 61 9 61 C8.67 62.32 8.34 63.64 8 65 C7.98018066 64.29391602 7.96036133 63.58783203 7.93994141 62.86035156 C7.84459585 59.65653006 7.73495487 56.45335199 7.625 53.25 C7.5940625 52.13882813 7.563125 51.02765625 7.53125 49.8828125 C7.49257813 48.81289062 7.45390625 47.74296875 7.4140625 46.640625 C7.3826416 45.65610352 7.3512207 44.67158203 7.31884766 43.65722656 C6.99897742 40.99147799 6.35631379 39.29383595 5 37 C4.34 37 3.68 37 3 37 C3 36.34 3 35.68 3 35 C2.34 35 1.68 35 1 35 C1 34.34 1 33.68 1 33 C0.34 33 -0.32 33 -1 33 C-2.72951578 29.54096843 -2.40535763 25.56898838 -2.62109375 21.75 C-2.73719166 18.86015992 -2.73719166 18.86015992 -5 17 C-4.625 14.875 -4.625 14.875 -4 13 C-2.35 13 -0.7 13 1 13 C0.05066101 9.64566891 -0.89748835 6.30753495 -2 3 C-1.34 2.01 -0.68 1.02 0 0 Z " fill="#CC95E7" transform="translate(305,138)"/>
<path d="M0 0 C1.25159912 0.00523682 2.50319824 0.01047363 3.79272461 0.01586914 C4.78942421 0.01799156 4.78942421 0.01799156 5.80625916 0.02015686 C7.93590735 0.02577021 10.06545175 0.03832485 12.19506836 0.05102539 C13.63582205 0.05603868 15.07657739 0.06060188 16.51733398 0.06469727 C20.05577938 0.07574394 23.59416375 0.09301747 27.13256836 0.11352539 C27.51475603 1.76967196 27.84651938 3.43809563 28.13256836 5.11352539 C27.13256836 6.11352539 27.13256836 6.11352539 24.17333984 6.22705078 C22.87984619 6.22181396 21.58635254 6.21657715 20.25366211 6.21118164 C19.22366844 6.20905922 19.22366844 6.20905922 18.17286682 6.20689392 C15.97189035 6.20128018 13.77101427 6.18872546 11.57006836 6.17602539 C10.08113753 6.17101216 8.59220512 6.16644894 7.10327148 6.16235352 C3.44633761 6.15130632 -0.21053722 6.13403252 -3.86743164 6.11352539 C-3.91015264 4.44740634 -3.90806996 2.77969654 -3.86743164 1.11352539 C-2.86743164 0.11352539 -2.86743164 0.11352539 0 0 Z " fill="#FAF5FC" transform="translate(241.867431640625,205.886474609375)"/>
<path d="M0 0 C1.134375 0.020625 2.26875 0.04125 3.4375 0.0625 C3.4375 0.3925 3.4375 0.7225 3.4375 1.0625 C1.4575 1.0625 -0.5225 1.0625 -2.5625 1.0625 C-2.42328125 2.07828125 -2.2840625 3.0940625 -2.140625 4.140625 C-1.12336695 14.99270209 -1.12336695 14.99270209 -3.74023438 18.75634766 C-5.7959548 20.83826843 -8.00907293 22.66916652 -10.26538086 24.52758789 C-13.28978506 27.20132333 -14.90820409 29.00567107 -15.39453125 33.1015625 C-15.50207992 36.80635384 -15.20436642 40.40917009 -14.5625 44.0625 C-14.2325 44.3925 -13.9025 44.7225 -13.5625 45.0625 C-13.52186168 46.72867115 -13.519779 48.39638095 -13.5625 50.0625 C-14.2225 50.0625 -14.8825 50.0625 -15.5625 50.0625 C-15.55089844 51.00351563 -15.53929687 51.94453125 -15.52734375 52.9140625 C-15.51380859 54.78191406 -15.51380859 54.78191406 -15.5 56.6875 C-15.48839844 57.91726562 -15.47679687 59.14703125 -15.46484375 60.4140625 C-15.55386076 63.73973791 -15.92563913 66.80297588 -16.5625 70.0625 C-16.8925 70.0625 -17.2225 70.0625 -17.5625 70.0625 C-17.58755615 69.48282471 -17.6126123 68.90314941 -17.63842773 68.3059082 C-17.75496234 65.66207893 -17.87742682 63.01855591 -18 60.375 C-18.03931641 59.46298828 -18.07863281 58.55097656 -18.11914062 57.61132812 C-18.16103516 56.72509766 -18.20292969 55.83886719 -18.24609375 54.92578125 C-18.30108032 53.70822144 -18.30108032 53.70822144 -18.35717773 52.46606445 C-18.51872564 49.99037343 -18.51872564 49.99037343 -19.14477539 47.32104492 C-19.28262451 46.5757251 -19.42047363 45.83040527 -19.5625 45.0625 C-19.0675 44.5675 -19.0675 44.5675 -18.5625 44.0625 C-18.39325188 40.66625449 -18.26501359 37.27704274 -18.22070312 33.87695312 C-18.13671875 31.72265625 -18.13671875 31.72265625 -17.5625 28.0625 C-15.51953125 26.55859375 -15.51953125 26.55859375 -13.5625 26.0625 C-13.5625 25.4025 -13.5625 24.7425 -13.5625 24.0625 C-12.9025 24.0625 -12.2425 24.0625 -11.5625 24.0625 C-11.5625 23.4025 -11.5625 22.7425 -11.5625 22.0625 C-10.9025 22.0625 -10.2425 22.0625 -9.5625 22.0625 C-9.5625 21.4025 -9.5625 20.7425 -9.5625 20.0625 C-8.91667969 19.69382813 -8.27085937 19.32515625 -7.60546875 18.9453125 C-5.1665519 17.09086036 -5.1665519 17.09086036 -4.98828125 13.3046875 C-4.93129633 11.84958408 -4.89419278 10.39359234 -4.875 8.9375 C-4.6208589 0.0810677 -4.6208589 0.0810677 0 0 Z " fill="#C893DB" transform="translate(261.5625,130.9375)"/>
<path d="M0 0 C3.875 0.875 3.875 0.875 5 2 C5.2819396 4.28684338 5.44777005 6.57363273 5.62109375 8.87109375 C5.82776636 11.20927403 5.82776636 11.20927403 8 13 C7.9375 16.375 7.9375 16.375 7 20 C4.5 22.3125 4.5 22.3125 2 24 C1.67 24.66 1.34 25.32 1 26 C0.34 26 -0.32 26 -1 26 C-1.02892857 22.04168191 -1.04677427 18.08339083 -1.0625 14.125 C-1.07087891 12.99707031 -1.07925781 11.86914062 -1.08789062 10.70703125 C-1.09111328 9.63066406 -1.09433594 8.55429688 -1.09765625 7.4453125 C-1.10289307 6.45031738 -1.10812988 5.45532227 -1.11352539 4.43017578 C-1 2 -1 2 0 0 Z " fill="#FCFBFC" transform="translate(195,142)"/>
<path d="M0 0 C0 13.2 0 26.4 0 40 C1.32 40.66 2.64 41.32 4 42 C5.25 44.125 5.25 44.125 6 46 C5.34 46 4.68 46 4 46 C4 45.34 4 44.68 4 44 C3.34 44 2.68 44 2 44 C2 43.34 2 42.68 2 42 C1.34 42 0.68 42 0 42 C0 49.92 0 57.84 0 66 C-1.32 65.34 -2.64 64.68 -4 64 C-3.34 64 -2.68 64 -2 64 C-2 43.54 -2 23.08 -2 2 C-2.66 1.67 -3.32 1.34 -4 1 C-1 0 -1 0 0 0 Z " fill="#CF9FE3" transform="translate(298,133)"/>
<path d="M0 0 C2.0625 0.4375 2.0625 0.4375 4 1 C5.125 4.75 5.125 4.75 4 7 C3.34 7 2.68 7 2 7 C1.59646149 15.9153409 1.59646149 15.9153409 5.03515625 23.86328125 C7.27630227 26.03339253 9.59302926 28.01887793 12 30 C13.64449869 33.28899737 12.95887015 36.85034736 12.83984375 40.46875 C12.73085981 43.17155657 12.73085981 43.17155657 15 45 C14.625 47.125 14.625 47.125 14 49 C12.125 49.625 12.125 49.625 10 50 C9.34 49.34 8.68 48.68 8 48 C8.53571429 44.46428571 8.53571429 44.46428571 10 43 C10.71921206 39.20038913 10.81266683 35.78742874 10 32 C8.01154515 29.74984532 8.01154515 29.74984532 5.5 27.8125 C2.19835249 24.99137396 0.74099006 23.16847318 0.40234375 18.8828125 C0.33905848 14.89715923 0.60598044 10.96451784 1 7 C0.01 6.67 -0.98 6.34 -2 6 C-1.125 1.125 -1.125 1.125 0 0 Z " fill="#C794DD" transform="translate(226,141)"/>
<path d="M0 0 C1.32 0.33 2.64 0.66 4 1 C4.14492288 6.83083319 4.28721178 12.66172313 4.42724609 18.49267578 C4.4750561 20.46892964 4.52353835 22.44516737 4.57275391 24.42138672 C4.81136445 34.01937419 5.04421079 43.6176059 5.09375 53.21875 C5.10083984 54.46591797 5.10792969 55.71308594 5.11523438 56.99804688 C5 60 5 60 4 63 C3.34 63 2.68 63 2 63 C1.03056382 58.94982593 0.88233332 55.19057892 0.90625 51.03125 C0.90983521 50.34357544 0.91342041 49.65590088 0.91711426 48.9473877 C0.98786657 39.46290983 1.25150663 29.98110609 1.5 20.5 C1.5483618 18.59766094 1.59653996 16.6953172 1.64453125 14.79296875 C1.76091092 10.195256 1.8797508 5.5976131 2 1 C1.34 0.67 0.68 0.34 0 0 Z " fill="#834BAD" transform="translate(251,318)"/>
<path d="M0 0 C0.66 0 1.32 0 2 0 C2 8.25 2 16.5 2 25 C3.32 25.66 4.64 26.32 6 27 C9.01227702 29.142933 10.75957812 30.72312683 11.45849609 34.43505859 C11.64504766 37.36110714 11.69696385 40.25559833 11.6875 43.1875 C11.70403891 45.18107449 11.7283849 47.17460435 11.76171875 49.16796875 C11.7611145 50.48704224 11.7611145 50.48704224 11.76049805 51.83276367 C11.79481371 54.21158597 11.79481371 54.21158597 14 56 C13.625 58.625 13.625 58.625 13 61 C11.02 60.67 9.04 60.34 7 60 C7.875 55.125 7.875 55.125 9 54 C9.91548185 47.5480327 10.25267698 40.40856271 9 34 C7.10405833 31.46110462 7.10405833 31.46110462 4.5 29.8125 C1.44855773 27.54898883 0.15228588 25.99744632 -0.42626953 22.20800781 C-0.81172597 14.79977661 -0.49089442 7.39698179 0 0 Z " fill="#C58ADB" transform="translate(269,132)"/>
<path d="M0 0 C0.99 0.33 1.98 0.66 3 1 C2.34 1 1.68 1 1 1 C1.08640747 2.0041394 1.08640747 2.0041394 1.17456055 3.02856445 C2.71403741 23.59803038 2.71403741 23.59803038 -1.4140625 28.83203125 C-3.33166835 30.7827267 -5.26209294 32.22527839 -7.49609375 33.8515625 C-10.28985889 35.83466073 -10.28985889 35.83466073 -10.84765625 39.2734375 C-10.89792969 40.17320312 -10.94820312 41.07296875 -11 42 C-10.34 42 -9.68 42 -9 42 C-9 43.65 -9 45.3 -9 47 C-11.475 47.495 -11.475 47.495 -14 48 C-15.0625 46.125 -15.0625 46.125 -16 44 C-15.67 43.34 -15.34 42.68 -15 42 C-14.34 42 -13.68 42 -13 42 C-13.11214844 40.9378125 -13.22429687 39.875625 -13.33984375 38.78125 C-13 35 -13 35 -10.62890625 32.71875 C-9.61699219 31.9865625 -8.60507812 31.254375 -7.5625 30.5 C-3.22016247 26.9024515 -1.66302634 23.85154414 -1.08203125 18.2109375 C-0.81800145 13.1547472 -0.84081531 8.10910736 -1.03076172 3.05029297 C-1 1 -1 1 0 0 Z " fill="#C892DB" transform="translate(266,131)"/>
<path d="M0 0 C3.47201405 3.47201405 3.71480644 5.74586309 4.1875 10.375 C4.26790527 11.07947266 4.34831055 11.78394531 4.43115234 12.50976562 C5.11689994 19.00755312 5.20125177 25.47049797 5 32 C3.35 32 1.7 32 0 32 C0 21.44 0 10.88 0 0 Z " fill="#FBF8FC" transform="translate(316,135)"/>
<path d="M0 0 C1.65 0 3.3 0 5 0 C5 9.57 5 19.14 5 29 C4.34 29 3.68 29 3 29 C-0.70181696 19.86885149 -0.15214815 9.68676581 0 0 Z " fill="#F7F1FA" transform="translate(187,169)"/>
<path d="M0 0 C3.63 0 7.26 0 11 0 C11 5.28 11 10.56 11 16 C9.68 15.01 8.36 14.02 7 13 C7.33 11.68 7.66 10.36 8 9 C5.69 9 3.38 9 1 9 C0.67 6.03 0.34 3.06 0 0 Z " fill="#FAF7FC" transform="translate(242,214)"/>
<path d="M0 0 C0.33 0 0.66 0 1 0 C1 9.24 1 18.48 1 28 C-0.65 28 -2.3 28 -4 28 C-3.67 20.08 -3.34 12.16 -3 4 C-2.34 4 -1.68 4 -1 4 C-0.67 2.68 -0.34 1.36 0 0 Z " fill="#F7F0F9" transform="translate(191,134)"/>
<path d="M0 0 C1.65 0 3.3 0 5 0 C5.78210117 21.29053178 5.78210117 21.29053178 0 29 C0 19.43 0 9.86 0 0 Z " fill="#F9F5FB" transform="translate(316,169)"/>
<path d="M0 0 C2.07770237 4.15540475 2.2445858 5.8968627 2.22705078 10.42089844 C2.22689972 11.72194519 2.22674866 13.02299194 2.22659302 14.36346436 C2.21638046 15.77876947 2.20594848 17.19407301 2.1953125 18.609375 C2.19158071 20.06097214 2.18873452 21.5125718 2.18673706 22.96417236 C2.17911364 26.77824907 2.15947635 30.59217262 2.1373291 34.40618896 C2.11684278 38.30071949 2.10772939 42.19527484 2.09765625 46.08984375 C2.07622915 53.7266322 2.04210892 61.36329461 2 69 C1.67 69 1.34 69 1 69 C1 58.44 1 47.88 1 37 C0.34 37 -0.32 37 -1 37 C-0.67 24.79 -0.34 12.58 0 0 Z " fill="#C388DB" transform="translate(209,130)"/>
<path d="M0 0 C1.32 0.33 2.64 0.66 4 1 C4.625 2.875 4.625 2.875 5 5 C4.34 5.66 3.68 6.32 3 7 C2.57446839 9.62976524 2.57446839 9.62976524 2.4375 12.5625 C2.09722222 17.90277778 2.09722222 17.90277778 1 19 C0.76636119 20.84891946 0.58696365 22.70488031 0.4375 24.5625 C0.35371094 25.57441406 0.26992188 26.58632812 0.18359375 27.62890625 C0.12300781 28.41136719 0.06242187 29.19382813 0 30 C-0.33 30 -0.66 30 -1 30 C-1 26.37 -1 22.74 -1 19 C-2.32 18.34 -3.64 17.68 -5 17 C-4.67 15.68 -4.34 14.36 -4 13 C-2.35 13 -0.7 13 1 13 C0.05066101 9.64566891 -0.89748835 6.30753495 -2 3 C-1.34 2.01 -0.68 1.02 0 0 Z " fill="#D5A8E4" transform="translate(305,138)"/>
<path d="M0 0 C1.66611905 -0.042721 3.33382885 -0.04063832 5 0 C6 1 6 1 6.0625 3.5625 C6.041875 4.366875 6.02125 5.17125 6 6 C5.34 6 4.68 6 4 6 C4 8.97 4 11.94 4 15 C13.57 15 23.14 15 33 15 C33 15.33 33 15.66 33 16 C28.74585377 16.02465622 24.49174502 16.04283899 20.23754883 16.05493164 C18.78929927 16.05997101 17.34105483 16.06680253 15.89282227 16.07543945 C13.81525412 16.08752247 11.73775303 16.09323211 9.66015625 16.09765625 C8.40855713 16.10289307 7.15695801 16.10812988 5.86743164 16.11352539 C3 16 3 16 2 15 C1.92820036 13.48071962 1.91607993 11.95832518 1.9375 10.4375 C1.94652344 9.61121094 1.95554688 8.78492188 1.96484375 7.93359375 C1.97644531 7.29550781 1.98804688 6.65742188 2 6 C1.34 6 0.68 6 0 6 C0 4.02 0 2.04 0 0 Z " fill="#B871DE" transform="translate(251,186)"/>
<path d="M0 0 C4.14300236 1.59346244 7.36288759 4.47523211 10 8 C10.375 10.875 10.375 10.875 10 13 C9.01 12.34 8.02 11.68 7 11 C5.96875 10.835 4.9375 10.67 3.875 10.5 C2.92625 10.335 1.9775 10.17 1 10 C-0.60725635 6.78548731 -0.05748185 3.56387464 0 0 Z " fill="#F6EFF9" transform="translate(243,231)"/>
<path d="M0 0 C1.95703125 0.62109375 1.95703125 0.62109375 4 2 C4.57421875 4.78515625 4.57421875 4.78515625 4.6875 8.0625 C4.50487039 11.8466325 4.50487039 11.8466325 6 15 C6.04063832 16.66617115 6.042721 18.33388095 6 20 C2.25 21.125 2.25 21.125 0 20 C0 18.35 0 16.7 0 15 C0.66 15 1.32 15 2 15 C2 10.71 2 6.42 2 2 C1.34 2 0.68 2 0 2 C0 1.34 0 0.68 0 0 Z " fill="#C082E0" transform="translate(304,179)"/>
<path d="M0 0 C0.33 0 0.66 0 1 0 C1.33 6.27 1.66 12.54 2 19 C2.66 19.33 3.32 19.66 4 20 C3.67 21.65 3.34 23.3 3 25 C2.01 25.33 1.02 25.66 0 26 C-0.99 25.34 -1.98 24.68 -3 24 C-2.67 22.35 -2.34 20.7 -2 19 C-1.34 19 -0.68 19 0 19 C0 12.73 0 6.46 0 0 Z " fill="#C67CEA" transform="translate(200,174)"/>
<path d="M0 0 C0.99 0.33 1.98 0.66 3 1 C3.6875 3.0625 3.6875 3.0625 4 5 C3.34 5 2.68 5 2 5 C2.01160156 5.94101563 2.02320313 6.88203125 2.03515625 7.8515625 C2.04869141 9.71941406 2.04869141 9.71941406 2.0625 11.625 C2.07410156 12.85476562 2.08570313 14.08453125 2.09765625 15.3515625 C2.00863924 18.67723791 1.63686087 21.74047588 1 25 C0.67 25 0.34 25 0 25 C-0.02505615 24.40461426 -0.0501123 23.80922852 -0.07592773 23.19580078 C-0.19177494 20.50530864 -0.31455196 17.8151766 -0.4375 15.125 C-0.47681641 14.18785156 -0.51613281 13.25070313 -0.55664062 12.28515625 C-0.59853516 11.38925781 -0.64042969 10.49335938 -0.68359375 9.5703125 C-0.73858032 8.32918701 -0.73858032 8.32918701 -0.79467773 7.06298828 C-0.88238327 4.93820571 -0.88238327 4.93820571 -2 3 C-1.34 2.01 -0.68 1.02 0 0 Z " fill="#C298D6" transform="translate(244,176)"/>
<path d="M0 0 C4.37704038 0.72316319 6.07826139 2.82212757 8.8046875 6.14453125 C10.34106788 8.52943543 10.5045037 10.22522966 10 13 C9.01 12.34 8.02 11.68 7 11 C7 10.34 7 9.68 7 9 C6.1028125 8.566875 6.1028125 8.566875 5.1875 8.125 C3 7 3 7 0 5 C-0.1875 2.375 -0.1875 2.375 0 0 Z " fill="#F3EBF7" transform="translate(243,224)"/>
<path d="M0 0 C1.875 0.1875 1.875 0.1875 4 1 C4.66 2.65 5.32 4.3 6 6 C3.03 8.97 0.06 11.94 -3 15 C-3.33 14.34 -3.66 13.68 -4 13 C-3.67 12.34 -3.34 11.68 -3 11 C-2.34 11 -1.68 11 -1 11 C-1 10.34 -1 9.68 -1 9 C-0.34 9 0.32 9 1 9 C1 8.34 1 7.68 1 7 C1.66 7 2.32 7 3 7 C1.68 5.68 0.36 4.36 -1 3 C-0.67 2.01 -0.34 1.02 0 0 Z " fill="#9B65C3" transform="translate(246,314)"/>
<path d="M0 0 C0.33 0 0.66 0 1 0 C0.99097656 0.71285156 0.98195313 1.42570313 0.97265625 2.16015625 C1.144774 7.72030797 1.47899345 11.18632221 5.5625 15.1875 C6.68545196 16.15228971 7.82413826 17.10045042 9 18 C9.33 16.02 9.66 14.04 10 12 C10.33 12 10.66 12 11 12 C11 14.64 11 17.28 11 20 C10.01 20.33 9.02 20.66 8 21 C7.67 20.01 7.34 19.02 7 18 C6.34 18 5.68 18 5 18 C5 17.34 5 16.68 5 16 C4.34 16 3.68 16 3 16 C3 15.34 3 14.68 3 14 C2.34 14 1.68 14 1 14 C-0.38226016 11.23547967 -0.09525387 8.9538637 -0.0625 5.875 C-0.05347656 4.77929688 -0.04445313 3.68359375 -0.03515625 2.5546875 C-0.02355469 1.71164063 -0.01195312 0.86859375 0 0 Z " fill="#C292D7" transform="translate(303,157)"/>
<path d="M0 0 C0.66 0 1.32 0 2 0 C2.19484938 2.43711614 2.38115178 4.87437398 2.5625 7.3125 C2.61857422 8.00279297 2.67464844 8.69308594 2.73242188 9.40429688 C2.96581505 12.62512274 3.03224218 14.90327345 2 18 C1.34 18 0.68 18 0 18 C-1.04167441 13.90274731 -0.94409525 10.38504776 -0.5625 6.1875 C-0.46066406 5.02605469 -0.35882813 3.86460937 -0.25390625 2.66796875 C-0.17011719 1.78753906 -0.08632812 0.90710938 0 0 Z " fill="#78469E" transform="translate(253,363)"/>
<path d="M0 0 C1.65 0.33 3.3 0.66 5 1 C5.625 2.875 5.625 2.875 6 5 C5.34 5.66 4.68 6.32 4 7 C1.375 6.625 1.375 6.625 -1 6 C-0.67 4.02 -0.34 2.04 0 0 Z " fill="#D3A7E2" transform="translate(243,145)"/>
<path d="M0 0 C2.125 0.375 2.125 0.375 4 1 C4.625 2.875 4.625 2.875 5 5 C4.34 5.66 3.68 6.32 3 7 C0.875 6.625 0.875 6.625 -1 6 C-1.625 4.125 -1.625 4.125 -2 2 C-1.34 1.34 -0.68 0.68 0 0 Z " fill="#CC9FDF" transform="translate(267,175)"/>
<path d="M0 0 C2.1875 0.3125 2.1875 0.3125 4 1 C4 2.65 4 4.3 4 6 C2.35 6.33 0.7 6.66 -1 7 C-1.66 5.68 -2.32 4.36 -3 3 C-1.75 1.4375 -1.75 1.4375 0 0 Z " fill="#CD9FE2" transform="translate(253,172)"/>
<path d="M0 0 C0 1.65 0 3.3 0 5 C-0.99 5 -1.98 5 -3 5 C-6.41507313 7.98818899 -8.83912647 11.0194435 -11 15 C-11.8359375 13.359375 -11.8359375 13.359375 -12 11 C-10.26357855 8.86378393 -8.62288781 7.10657379 -6.625 5.25 C-6.10421875 4.74339844 -5.5834375 4.23679687 -5.046875 3.71484375 C-1.18183541 0 -1.18183541 0 0 0 Z " fill="#F6F1F9" transform="translate(253,319)"/>
<path d="M0 0 C0.33 0 0.66 0 1 0 C1 4.29 1 8.58 1 13 C-0.65 13 -2.3 13 -4 13 C-3.67 11.35 -3.34 9.7 -3 8 C-2.01 8 -1.02 8 0 8 C0 5.36 0 2.72 0 0 Z " fill="#E9D3F2" transform="translate(320,154)"/>
<path d="M0 0 C0.66 0 1.32 0 2 0 C2 1.65 2 3.3 2 5 C3.32 5.33 4.64 5.66 6 6 C6.33 7.32 6.66 8.64 7 10 C6.01 10.495 6.01 10.495 5 11 C5 9.68 5 8.36 5 7 C4.01 7 3.02 7 2 7 C2 7.66 2 8.32 2 9 C1.34 9 0.68 9 0 9 C0 6.03 0 3.06 0 0 Z " fill="#C18BD3" transform="translate(200,143)"/>
<path d="M0 0 C0.99 0 1.98 0 3 0 C3 3.63 3 7.26 3 11 C2.01 10.67 1.02 10.34 0 10 C0.04125 9.236875 0.0825 8.47375 0.125 7.6875 C0.22080824 4.77281584 0.22080824 4.77281584 -2 2 C-1.34 2 -0.68 2 0 2 C0 1.34 0 0.68 0 0 Z " fill="#D5AFE3" transform="translate(202,150)"/>
<path d="M0 0 C0.33 0.66 0.66 1.32 1 2 C1.99 2.33 2.98 2.66 4 3 C4 4.32 4 5.64 4 7 C1.03 6.505 1.03 6.505 -2 6 C-1.125 1.125 -1.125 1.125 0 0 Z " fill="#D1A5E7" transform="translate(278,186)"/>
<path d="M0 0 C0.66 0 1.32 0 2 0 C2 0.66 2 1.32 2 2 C2.66 2 3.32 2 4 2 C4 3.65 4 5.3 4 7 C1.525 6.01 1.525 6.01 -1 5 C-0.67 3.35 -0.34 1.7 0 0 Z " fill="#D4AEE9" transform="translate(198,193)"/>
<path d="M0 0 C2.31 0 4.62 0 7 0 C7.103125 0.763125 7.20625 1.52625 7.3125 2.3125 C8.04364039 5.17059424 8.76951913 6.15742885 11 8 C10.67 8.66 10.34 9.32 10 10 C9.52949219 9.44570312 9.05898437 8.89140625 8.57421875 8.3203125 C7.95160156 7.59585938 7.32898438 6.87140625 6.6875 6.125 C6.07261719 5.40570313 5.45773438 4.68640625 4.82421875 3.9453125 C2.9587676 1.80820669 2.9587676 1.80820669 0 0 Z " fill="#B673E1" transform="translate(243,223)"/>
<path d="M0 0 C1.32 0 2.64 0 4 0 C4 1.65 4 3.3 4 5 C2.35 5 0.7 5 -1 5 C-0.67 3.35 -0.34 1.7 0 0 Z " fill="#F5E9F9" transform="translate(188,163)"/>
<path d="M0 0 C0.99 0.33 1.98 0.66 3 1 C3.6875 3.0625 3.6875 3.0625 4 5 C2.35 5 0.7 5 -1 5 C-1.33 4.34 -1.66 3.68 -2 3 C-1.34 2.01 -0.68 1.02 0 0 Z " fill="#D8B5E8" transform="translate(244,176)"/>
<path d="M0 0 C1.67542976 0.28604898 3.34385343 0.61781233 5 1 C5 2.65 5 4.3 5 6 C4.34 5.34 3.68 4.68 3 4 C2.34 3.67 1.68 3.34 1 3 C0.34 3.99 -0.32 4.98 -1 6 C-1.042721 4.33388095 -1.04063832 2.66617115 -1 1 C-0.67 0.67 -0.34 0.34 0 0 Z " fill="#C894D7" transform="translate(199,137)"/>
<path d="M0 0 C1.98 0.495 1.98 0.495 4 1 C4.33 2.32 4.66 3.64 5 5 C3.35 4.67 1.7 4.34 0 4 C0 2.68 0 1.36 0 0 Z " fill="#C29DDE" transform="translate(246,314)"/>
<path d="M0 0 C3.70293685 -0.33663062 5.39534381 -0.47736015 8.375 1.875 C10 4 10 4 10 6 C7.53199953 4.84826645 5.95216435 3.95216435 4 2 C2.68252676 1.30251417 1.35085807 0.63040043 0 0 Z " fill="#BD7BEB" transform="translate(244,241)"/>
<path d="M0 0 C2.31 1.98 4.62 3.96 7 6 C6.34 6.66 5.68 7.32 5 8 C3.02 5.69 1.04 3.38 -1 1 C-0.67 0.67 -0.34 0.34 0 0 Z " fill="#C996DC" transform="translate(273,158)"/>
<path d="M0 0 C0.99 0 1.98 0 3 0 C3.33 1.32 3.66 2.64 4 4 C2.125 4.625 2.125 4.625 0 5 C-0.66 4.34 -1.32 3.68 -2 3 C-1.34 2.01 -0.68 1.02 0 0 Z " fill="#DBBAEE" transform="translate(306,195)"/>
<path d="M0 0 C1.65 0 3.3 0 5 0 C5.33 0.66 5.66 1.32 6 2 C5.01 3.485 5.01 3.485 4 5 C3.01 4.67 2.02 4.34 1 4 C0.3125 1.9375 0.3125 1.9375 0 0 Z " fill="#D7B8E7" transform="translate(251,186)"/>
<path d="M0 0 C0.99 0 1.98 0 3 0 C3 1.65 3 3.3 3 5 C1.68 4.67 0.36 4.34 -1 4 C-1 1 -1 1 0 0 Z " fill="#DEBEE7" transform="translate(226,141)"/>
<path d="M0 0 C0.33 0.66 0.66 1.32 1 2 C1.66 2 2.32 2 3 2 C2.67 3.65 2.34 5.3 2 7 C1.34 7 0.68 7 0 7 C-1.125 2.25 -1.125 2.25 0 0 Z " fill="#804CA9" transform="translate(253,374)"/>
<path d="M0 0 C0 1.98 0 3.96 0 6 C-0.99 6 -1.98 6 -3 6 C-3.33 5.01 -3.66 4.02 -4 3 C-1.125 0 -1.125 0 0 0 Z " fill="#F2E7F6" transform="translate(306,145)"/>
</svg>
